<svg width="128" height="37" viewBox="0 0 128 37" xmlns="http://www.w3.org/2000/svg"><g id="Welcome" fill="none" fill-rule="evenodd"><g id="homepage-1-inactive" fill="#000"><g id="Intro"><g id="logo"><path d="M11.215 33.39H3.972V20.57h7.243a6.42 6.42 0 0 1 6.41 6.41 6.417 6.417 0 0 1-6.41 6.41zM3.972 4.134h3.134a6.417 6.417 0 0 1 6.41 6.41 6.42 6.42 0 0 1-6.41 6.41H3.972V4.136zM14.36 17.46a9.998 9.998 0 0 0 2.77-6.914C17.13 5.018 12.635.52 7.107.52h-4.94c-1 0-1.81.81-1.81 1.808v32.87c0 .996.81 1.806 1.81 1.806h9.05c5.526 0 10.022-4.497 10.022-10.024 0-4.43-2.886-8.197-6.88-9.52z" id="Fill-1"/><path d="M60.682 33.39h-7.72V2.33a1.806 1.806 0 1 0-3.613 0v32.867c0 .997.807 1.807 1.806 1.807h9.526a1.807 1.807 0 1 0 0-3.615" id="Fill-2"/><path d="M103.016 4.135a1.806 1.806 0 1 0 0-3.614H92c-.997 0-1.806.81-1.806 1.81v32.867c0 1 .81 1.807 1.807 1.807h11.016c1 0 1.807-.808 1.807-1.807 0-1-.808-1.808-1.807-1.808h-9.21V20.57h6.74a1.808 1.808 0 0 0 0-3.614h-6.74V4.136h9.21" id="Fill-3"/><path d="M126.18.52c-1 0-1.808.81-1.808 1.81v24.7L112.515 1.567a1.8 1.8 0 0 0-2.03-1.002 1.807 1.807 0 0 0-1.417 1.766v32.866a1.808 1.808 0 0 0 3.616 0V10.493l11.855 25.465a1.816 1.816 0 0 0 2.03 1.003 1.808 1.808 0 0 0 1.417-1.764V2.33c0-1-.812-1.81-1.806-1.81" id="Fill-4"/><path d="M69.956 33.276V4.248c7.216.893 12.82 7.062 12.82 14.515 0 7.454-5.604 13.623-12.82 14.513M68.15.52c-1 0-1.807.81-1.807 1.81v32.866c0 .998.807 1.807 1.806 1.807 10.06 0 18.24-8.183 18.24-18.24C86.39 8.703 78.21.52 68.15.52" id="Fill-5"/><path d="M38.768 33.39H28.254a1.806 1.806 0 1 0 0 3.614h10.514a1.807 1.807 0 0 0 0-3.615" id="Fill-6"/><path d="M38.768 27.227H28.254a1.807 1.807 0 1 0 0 3.613h10.514a1.806 1.806 0 0 0 0-3.613" id="Fill-7"/><path d="M33.51 21.065c-4.666 0-8.463-3.797-8.463-8.464s3.797-8.465 8.463-8.465c4.667 0 8.463 3.798 8.463 8.466 0 4.668-3.796 8.465-8.463 8.465m0-20.544c-6.66 0-12.077 5.42-12.077 12.08S26.85 24.68 33.51 24.68s12.077-5.42 12.077-12.08S40.17.52 33.51.52" id="Fill-8"/></g></g></g></g></svg>