<?xml version="1.0" encoding="utf-8"?>
<!DOCTYPE svg PUBLIC "-//W3C//DTD SVG 1.1//EN" "http://www.w3.org/Graphics/SVG/1.1/DTD/svg11.dtd">
<svg version="1.1" id="Layer_1" xmlns="http://www.w3.org/2000/svg" xmlns:xlink="http://www.w3.org/1999/xlink" x="0px" y="0px"
	 width="525px" height="117.64px" viewBox="0 0 525 117.64" enable-background="new 0 0 525 117.64" xml:space="preserve">
<path fill="#ffffff" d="M316.789,0c-24.701,0-44.779,19.738-45.355,44.3h-0.027v1.068c0,0.005-0.001,0.01-0.001,0.015h0.001v45.383
	h17.797V45.368c0.008-15.204,12.379-27.571,27.586-27.571c15.211,0,27.586,12.375,27.586,27.586h-0.002v45.383h17.798V45.383h0.001
	C362.172,20.319,341.853,0,316.789,0"/>
<path fill="#ffffff" d="M108.589,44.3h-0.027v46.465h17.797V45.383c0-15.211,12.375-27.586,27.585-27.586V0
	C129.243,0,109.166,19.738,108.589,44.3"/>
<path fill="#ffffff" d="M253.581,44.3C253.004,19.738,232.927,0,208.226,0c-25.064,0-45.383,20.318-45.383,45.383
	c0,25.064,20.319,45.382,45.383,45.382c6.664,0,12.987-1.446,18.686-4.028V65.652c-4.918,4.538-11.482,7.315-18.686,7.315
	c-15.211,0-27.586-12.374-27.586-27.584c0-15.211,12.375-27.586,27.586-27.586c14.847,0,26.986,11.793,27.558,26.503h0.027v1.077
	c0,0.002,0,0.004,0,0.006c0,0.001,0,0.003,0,0.005V81.41v9.355h17.797V44.3H253.581z"/>
<path fill="#ffffff" d="M90.737,44.3C90.161,19.738,70.083,0,45.382,0C20.318,0,0,20.318,0,45.383
	c0,25.064,20.318,45.382,45.382,45.382c6.665,0,12.988-1.444,18.687-4.028V65.652c-4.918,4.537-11.483,7.315-18.687,7.315
	c-15.21,0-27.586-12.374-27.586-27.585s12.376-27.586,27.586-27.586c14.847,0,26.987,11.793,27.558,26.504h0.028V81.41v9.354h17.797
	V44.3H90.737z"/>
<path fill="#ffffff" d="M524.973,44.3C524.396,19.738,504.318,0,479.617,0c-25.063,0-45.383,20.318-45.383,45.383
	c0,25.064,20.319,45.382,45.383,45.382c6.665,0,12.988-1.446,18.688-4.029V65.652c-4.919,4.538-11.483,7.315-18.688,7.315
	c-15.211,0-27.586-12.374-27.586-27.584c0-15.211,12.375-27.586,27.586-27.586c14.848,0,26.986,11.793,27.559,26.503h0.026v46.465
	H525V44.3H524.973z"/>
<path fill="#ffffff" d="M407.133,0L407.133,0h-26.729v17.948h18.187l0.049,8.754v36.655c0,20.117-16.366,36.485-36.423,36.485
	l-17.846-0.004v17.801h17.785c29.931,0,54.281-24.351,54.281-54.282V0H407.133z"/>
</svg>
