<?xml version="1.0" encoding="utf-8"?>
<!-- Generator: Adobe Illustrator 19.2.1, SVG Export Plug-In . SVG Version: 6.00 Build 0)  -->
<svg version="1.1" id="Layer_1" xmlns="http://www.w3.org/2000/svg" xmlns:xlink="http://www.w3.org/1999/xlink" x="0px" y="0px"
	 viewBox="0 0 137.8 53" style="enable-background:new 0 0 137.8 53;" xml:space="preserve">
<style type="text/css">
	.st0{fill:#FFFFFF;}
</style>
<g>
	<g>
		<path class="st0" d="M93.3,39.8c0.4,0.3,0.7,0.7,0.7,1.5v3.4h-1.3v-3.2c0,0,0-0.8-0.4-1c-0.4-0.2-0.9-0.2-1.7-0.2h0v4.3h-1.3v-5.3
			h2.2C92.1,39.4,92.7,39.4,93.3,39.8"/>
		<path class="st0" d="M87.2,39.8c0.4,0.3,0.7,0.7,0.7,1.5v3.4h-1.3l0-3.2c0,0,0-0.8-0.4-1c-0.4-0.2-0.9-0.2-1.7-0.2h0v4.3h-1.3
			v-5.3h2.2C86,39.4,86.6,39.4,87.2,39.8"/>
		<path class="st0" d="M80.5,38.1 M80.5,37h1.3v1.1h-1.3V37z M80.5,43.5v-4.2h1.3v5.4C80.9,44.8,80.5,44.3,80.5,43.5"/>
		<path class="st0" d="M77.8,43.5V37h1.3v7.8C78.3,44.8,77.8,44.3,77.8,43.5"/>
		<path class="st0" d="M63.7,40.8c0-0.7-0.3-0.7-1-0.7c-0.7,0-1.2,0-1.2,0.7c0,0.5,0.1,0.6,1.3,0.6c1.3,0.1,2.4,0,2.4,1.7
			c0,1.5-1.2,1.6-2.5,1.6c-1.5,0-2.5,0-2.5-1.8h1.3c0,0.8,0.2,0.9,1.2,0.9c0.8,0,1.2,0,1.2-0.7c0-0.5,0-0.7-1.3-0.7
			c-2,0-2.4-0.3-2.4-1.7c0-1.5,1.1-1.5,2.5-1.5c1.1,0,2.3,0,2.3,1.5H63.7z"/>
		<path class="st0" d="M57.6,38.1 M57.6,37h1.3v1.1h-1.3V37z M57.6,43.5v-4.2h1.3v5.4C58.1,44.8,57.6,44.3,57.6,43.5"/>
		<path class="st0" d="M39.7,41.4c0-0.9-0.1-1.2-1.2-1.2c-0.6,0-1,0.1-1,0.8h-1.3c0-1.6,1.1-1.6,2.3-1.6c0.4,0,1.7,0,1.8,0.7h0
			c0.2-0.7,1.2-0.7,1.8-0.7c2.2,0,2.5,0.7,2.5,3H41c0,1.2,0,1.5,1.2,1.5c0.7,0,1.2,0,1.2-0.8h1.3c0,1.7-1,1.8-2.5,1.8
			c-0.7,0-1.7-0.1-2-0.9h0c-0.3,0.8-1.3,0.9-2.2,0.9c-1.2,0-2-0.3-2-1.7c0-1.3,0.7-1.7,2-1.7c0.7,0,1.3,0,1.6,0.6h0V41.4z
			 M37.3,43.1c0,0.8,0.3,0.8,1.2,0.8c0.7,0,1.2-0.1,1.2-0.8c0-0.8-0.6-0.8-1.2-0.8C37.9,42.3,37.3,42.3,37.3,43.1 M43.4,41.5
			c0-1.1-0.2-1.2-1.2-1.2c-1.1,0-1.2,0.2-1.2,1.2H43.4z"/>
		<path class="st0" d="M55.6,39.8c0.4,0.3,0.7,0.7,0.7,1.5v3.4H55v-3.2c0,0,0-0.8-0.4-1c-0.4-0.2-0.9-0.2-1.7-0.2h0v4.3h-1.3v-5.3
			h2.2C54.4,39.4,55,39.4,55.6,39.8"/>
		<polygon class="st0" points="48.6,41.9 50.9,44.7 49.3,44.7 47.5,42.3 47.2,42.3 47.2,44.7 45.9,44.7 45.9,37 47.2,37 47.2,41.5 
			47.5,41.5 49,39.4 50.5,39.4 		"/>
		<path class="st0" d="M36.8,37h-6v1h2.4v5.5c0,0.7,0.5,1.3,1.3,1.3V38h2.4V37z"/>
		<polygon class="st0" points="67.6,41.5 67.9,41.5 69.4,39.4 70.9,39.4 69,41.9 71.3,44.7 69.7,44.7 67.9,42.3 67.6,42.3 
			67.6,44.7 66.3,44.7 66.3,37 67.6,37 		"/>
		<path class="st0" d="M76.5,42.1c0,2.1-0.3,2.8-2.5,2.8c-2.3,0-2.5-0.7-2.5-2.8c0-2.1,0.3-2.8,2.5-2.8C76.2,39.3,76.5,40,76.5,42.1
			 M72.7,42.1c0,1.4,0.1,1.8,1.2,1.8c1.2,0,1.2-0.3,1.2-1.8c0-1.5-0.1-1.8-1.2-1.8C72.8,40.3,72.7,40.6,72.7,42.1 M75.1,37.8l-2,0.9
			l-0.3-0.5l1.8-1.2L75.1,37.8z"/>
	</g>
	<g>
		<path class="st0" d="M11.9,14.6h1.8L8.6,30.8H6.2L1,14.6h1.7l3.9,12.2L7,28.1c0.1,0.5,0.3,0.9,0.4,1.2h0c0.2-0.8,0.5-1.6,0.7-2.5
			L11.9,14.6z"/>
		<path class="st0" d="M22.4,27.3H24l0,0.4c0,1.2-0.3,2-1,2.5c-0.6,0.5-1.8,0.7-3.4,0.7c-1.9,0-3.1-0.4-3.7-1.1
			C15.3,29,15,27.4,15,25c0-2.3,0.3-3.8,0.9-4.6c0.6-0.8,1.7-1.2,3.5-1.2c1.9,0,3.1,0.3,3.7,1c0.6,0.7,0.9,2.1,0.9,4.2v0.9h-7.3
			c0,1.8,0.2,2.9,0.5,3.4c0.3,0.5,1.1,0.7,2.4,0.7c1.2,0,2-0.1,2.3-0.3c0.4-0.2,0.5-0.7,0.5-1.5V27.3z M22.4,24.1l0-0.5
			c0-1.2-0.2-2-0.5-2.4c-0.4-0.4-1.1-0.6-2.3-0.6c-1.2,0-2,0.2-2.4,0.6c-0.4,0.4-0.5,1.4-0.5,2.8H22.4z"/>
		<path class="st0" d="M27.2,30.8v-10h-1.6v-1.4h1.6v-1.7c0-2.2,1-3.3,3.1-3.3c0.3,0,0.7,0,1.1,0.1v1.4c-0.5-0.1-0.8-0.1-1.1-0.1
			c-1.1,0-1.6,0.6-1.6,1.8v1.8h2.7v1.4h-2.7v10H27.2z"/>
		<path class="st0" d="M40.9,22.4h-1.5c0-0.8-0.1-1.3-0.4-1.5c-0.3-0.2-1-0.3-2.2-0.3c-1.1,0-1.8,0.1-2.1,0.3
			c-0.3,0.2-0.4,0.7-0.4,1.5c0,1.2,0.5,1.8,1.5,1.8l1.2,0.1l1.5,0.1c1.8,0.1,2.8,1.2,2.8,3.2c0,1.3-0.3,2.1-0.9,2.6
			c-0.6,0.5-1.7,0.7-3.4,0.7c-1.7,0-2.8-0.2-3.5-0.7c-0.6-0.5-0.9-1.3-0.9-2.5l0-0.6h1.5l0,0.5c0,0.7,0.2,1.2,0.5,1.5
			c0.3,0.2,1,0.4,2,0.4c1.2,0,2-0.1,2.4-0.4c0.4-0.3,0.6-0.8,0.6-1.6c0-1.2-0.5-1.8-1.5-1.8c-2.3,0-3.8-0.2-4.5-0.6
			c-0.7-0.4-1.1-1.3-1.1-2.7c0-1.3,0.3-2.1,0.8-2.5c0.6-0.4,1.7-0.6,3.4-0.6c2.7,0,4.1,0.9,4.1,2.7V22.4z"/>
		<path class="st0" d="M45.3,14.6V24h0.7l3.6-4.6h1.9l-4.4,5.2l5.2,6.1h-2l-4.3-5.5h-0.6v5.5h-1.5V14.6H45.3z"/>
		<path class="st0" d="M57.8,19.3c1.9,0,3.1,0.4,3.7,1.1c0.6,0.7,0.8,2.3,0.8,4.7c0,2.4-0.3,4-0.8,4.7c-0.6,0.7-1.8,1.1-3.7,1.1
			c-1.9,0-3.1-0.4-3.7-1.1c-0.6-0.7-0.8-2.3-0.8-4.7c0-2.4,0.3-4,0.8-4.7C54.7,19.6,55.9,19.3,57.8,19.3z M57.8,20.7
			c-1.3,0-2.1,0.2-2.5,0.7c-0.3,0.5-0.5,1.7-0.5,3.7c0,2,0.2,3.3,0.5,3.7c0.3,0.5,1.1,0.7,2.5,0.7c1.3,0,2.2-0.2,2.5-0.7
			c0.3-0.5,0.5-1.7,0.5-3.7c0-2-0.2-3.3-0.5-3.7C60,20.9,59.1,20.7,57.8,20.7z M59.5,14.8l0.8,1.2l-3.1,2.1l-0.5-0.9L59.5,14.8z"/>
		<path class="st0" d="M66.6,14.6v16.2h-1.5V14.6H66.6z"/>
		<path class="st0" d="M71.1,14.6v1.9h-1.5v-1.9H71.1z M71.1,19.4v11.3h-1.5V19.4H71.1z"/>
		<path class="st0" d="M74.2,19.4h1.4l0,1.5l0,0c0.5-1.2,1.6-1.7,3.4-1.7c1.5,0,2.4,0.3,3,0.9c0.5,0.6,0.8,1.7,0.8,3.3v7.4h-1.5
			v-7.2v-0.4c0-1-0.2-1.6-0.5-2c-0.3-0.3-1-0.5-1.9-0.5c-2.1,0-3.1,1.1-3.1,3.3v6.8h-1.5V19.4z"/>
		<path class="st0" d="M85.9,19.4h1.4l0,1.5l0,0c0.5-1.2,1.6-1.7,3.4-1.7c1.5,0,2.4,0.3,3,0.9c0.5,0.6,0.8,1.7,0.8,3.3v7.4H93v-7.2
			v-0.4c0-1-0.2-1.6-0.5-2c-0.3-0.3-1-0.5-1.9-0.5c-2.1,0-3.1,1.1-3.1,3.3v6.8h-1.5V19.4z"/>
	</g>
	<g>
		<path class="st0" d="M110,0.8c-0.3,0.5-0.3,0.9-0.3,1.7c0,5.1,0.3,10.8,4.1,15.6c2.5,3.2,8.7,9.3,10.8,13.1
			c2.7,4.9,3.9,7.9,4.4,10.7c0.2,1.1,0.4,1.6,1,1.6c0.5,0,1-0.4,1.1-1.7c0.4-3.3,0.6-7.5-0.5-11.1c-1.6-5.1-5-10-10.8-15.6
			c-4.7-4.5-7.2-8.5-8-12.9c-0.1-0.5-0.1-0.8-0.4-1.2C110.8,0.2,110.1,0.5,110,0.8z"/>
		<path class="st0" d="M135.4,8.5c-0.2-0.3-0.8-0.6-1.2,0c-0.3,0.4-0.3,0.6-0.4,1.1c-0.7,3.8-2.8,7.3-6.8,11.2
			c1.2,1.9,2.2,3.8,3,5.6c0.8-0.9,1.5-1.7,2.1-2.4c3.3-4.3,3.7-9.4,3.6-14C135.7,9.3,135.7,9,135.4,8.5z M116.9,35.2
			c-1,3.3-0.8,7.1-0.5,10c0.1,1.2,0.6,1.5,1,1.5c0.6,0,0.8-0.5,0.9-1.4c0.5-2.5,1.5-5.2,4-9.6c0.5-0.9,1.3-1.9,2.1-3
			c-1-1.5-2.4-3.1-3.9-4.8C118.9,30.4,117.7,32.8,116.9,35.2z"/>
		<path class="st0" d="M114.1,24.1c-4.7-4.5-7.2-8.5-8-12.9c-0.1-0.5-0.1-0.8-0.4-1.2c-0.5-0.6-1.2-0.3-1.4,0
			c-0.3,0.5-0.3,0.9-0.3,1.7c0,5.1,0.3,10.8,4.1,15.6c1.7,2.2,5,5.6,7.7,8.8c0.7-2.3,1.5-4.9,2.8-7.3
			C117.2,27.2,115.7,25.6,114.1,24.1z M124.9,39.6c-0.3-1-0.7-2-1.1-2.9c-1.6,1.9-2.7,4-3.6,6.1c1.7,3.4,2.6,5.8,3,8.1
			c0.2,1.1,0.4,1.6,1,1.6c0.5,0,1-0.4,1.1-1.7C125.8,47.5,126,43.3,124.9,39.6z"/>
	</g>
</g>
</svg>
